<svg xmlns="http://www.w3.org/2000/svg" xmlns:xlink="http://www.w3.org/1999/xlink"><defs>
        <clipPath id="a">
            <rect rx="0" width="69" height="23" transform="translate(.5 19.524)" fill="#fff" fill-opacity="0"/>
        </clipPath>
    </defs><symbol id="arrow"><g fill="none">
    
    <path d="M40.7 51.53c4.13 4.14 9.06 6.79 14.79 7.93 5.72 1.15 11.28.6 16.68-1.65 5.39-2.24 9.71-5.8 12.96-10.68C88.37 42.26 90 36.88 90 31.02c0-5.87-1.63-11.24-4.87-16.11-3.25-4.88-7.57-8.44-12.96-10.68-5.4-2.25-10.96-2.8-16.68-1.65-5.73 1.14-10.66 3.78-14.79 7.93L39.29 9.1C43.7 4.67 48.97 1.84 55.1.61c6.12-1.22 12.07-.63 17.84 1.77s10.38 6.2 13.85 11.42C90.26 19.01 92 24.75 92 31.02s-1.74 12.01-5.21 17.22c-3.47 5.21-8.08 9.02-13.85 11.42-5.77 2.4-11.72 2.99-17.84 1.76-6.13-1.22-11.4-4.05-15.81-8.48l1.41-1.41Zm-1.39 1.41h-.02a.99.99 0 0 1 0-1.42.987.987 0 0 1 1.41.01v.02l-1.39 1.39Zm1.39-42.46v.03c-.39.4-1.01.4-1.41 0a.978.978 0 0 1 0-1.41h.02l1.39 1.38Z" fill="#1F1E1E" fill-rule="evenodd"/>
    <g clip-path="url(#a)" stroke="#1F1E1E" stroke-width="2" stroke-linejoin="round" stroke-linecap="round">
        <path d="M5 31.02h60M58 24.02l7 7-7 7"/>
    </g>
</g></symbol><symbol id="logo" viewBox="0 0 202 147"><g fill="none">
    <path fill="#1F1E1E" d="M0 0h147v147H0z"/>
    <path d="M39.965 72.439H26.633V50.032h-.032v-.033h-4.686V73h18.05v-.561ZM43.932 73h18.117v-.561H48.618V61.285h10.494v-.594H48.618V50.56h13.43v-.561H43.933V73ZM70.7 73V50.56c2.87 0 11.714 1.089 12.374 13.893V73h4.686V49.999h-4.686v10.329C81.655 54.19 77.167 49.999 70.7 49.999h-4.686V73H70.7ZM97.39 73V50.56c2.87 0 11.714 1.089 12.374 13.893V73h4.686V49.999h-4.686v10.329c-1.419-6.138-5.907-10.329-12.375-10.329h-4.686V73h4.686ZM119.393 73h4.686V49.999h-4.686V73Z" fill="#fff"/>
    <path fill="#BC3324" d="M81 92h121v42H81z"/>
    <path d="M108.922 124h.54l2.94-8.55h8.55l3.33 8.55h4.47l-8.1-20.91h-4.53l-7.2 20.91Zm7.5-20.25 4.35 11.19h-8.19l3.84-11.19ZM132.644 103.09V124h4.26v-7.23h5.07l4.89 7.2h4.86l-5.16-7.65c3-.78 5.28-2.64 5.28-6.81 0-5.22-3.81-6.87-8.25-6.87-4.68 0-6.03 3.51-6.69 7.41v-6.96h-4.26Zm5.43 4.38c.81-2.94 2.91-4.14 4.77-4.29 4.47-.42 4.65 2.43 4.65 6.33 0 6.33-3.36 6.75-6.24 6.75h-4.35s-.12-4.14 1.17-8.79ZM162.084 103.6l.03 20.4h4.26v-20.4h8.61v-.51h-21.51v.51h8.61Z" fill="#fff"/>
</g></symbol></svg>