<svg width="92.000000" height="62.047363" viewBox="0 0 92 62.0474" fill="none"
     xmlns="http://www.w3.org/2000/svg" xmlns:xlink="http://www.w3.org/1999/xlink">
<desc>
    Created with Pixso.
</desc>
<defs>
    <clipPath id="clip822_223">
        <rect id="fi:arrow-right" rx="0.000000" width="69.000000" height="23.000000"
              transform="translate(0.500000 19.523682)" fill="white" fill-opacity="0"/>
    </clipPath>
</defs>
<path id="Ellipse 31"
      d="M40.7 51.53C44.83 55.67 49.76 58.32 55.49 59.46C61.21 60.61 66.77 60.06 72.17 57.81C77.56 55.57 81.88 52.01 85.13 47.13C88.37 42.26 90 36.88 90 31.02C90 25.15 88.37 19.78 85.13 14.91C81.88 10.03 77.56 6.47 72.17 4.23C66.77 1.98 61.21 1.43 55.49 2.58C49.76 3.72 44.83 6.36 40.7 10.51L39.29 9.1C43.7 4.67 48.97 1.84 55.1 0.61C61.22 -0.61 67.17 -0.02 72.94 2.38C78.71 4.78 83.32 8.58 86.79 13.8C90.26 19.01 92 24.75 92 31.02C92 37.29 90.26 43.03 86.79 48.24C83.32 53.45 78.71 57.26 72.94 59.66C67.17 62.06 61.22 62.65 55.1 61.42C48.97 60.2 43.7 57.37 39.29 52.94L40.7 51.53ZM39.31 52.94L39.29 52.94C38.89 52.54 38.89 51.92 39.29 51.52C39.69 51.13 40.31 51.13 40.7 51.53L40.7 51.55L39.31 52.94ZM40.7 10.48L40.7 10.51C40.31 10.91 39.69 10.91 39.29 10.51C38.89 10.12 38.89 9.5 39.29 9.1L39.31 9.1L40.7 10.48Z"
      fill="#1F1E1E" fill-opacity="1.000000" fill-rule="evenodd"/>
<g clip-path="url(#clip822_223)">
    <path id="Vector" d="M5 31.02L65 31.02" stroke="#1F1E1E" stroke-opacity="1.000000" stroke-width="2.000000"
          stroke-linejoin="round" stroke-linecap="round"/>
    <path id="Vector" d="M58 24.02L65 31.02L58 38.02" stroke="#1F1E1E" stroke-opacity="1.000000" stroke-width="2.000000"
          stroke-linejoin="round" stroke-linecap="round"/>
</g>
</svg>