<svg viewBox="0 0 110 110" fill="none" xmlns="http://www.w3.org/2000/svg" xmlns:xlink="http://www.w3.org/1999/xlink">
    <rect id="contact" rx="0.000000" width="109.000000" height="109.000000" transform="translate(0.500000 0.500000)"
          fill="#1F1E1E" fill-opacity="1.000000"/>
    <g clip-path="url(#clip950_1272)">
        <path id="Vector"
              d="M65 59.91L65 62.91C65 63.19 64.94 63.47 64.83 63.72C64.72 63.98 64.55 64.21 64.35 64.4C64.14 64.58 63.9 64.73 63.64 64.82C63.37 64.91 63.09 64.94 62.82 64.91C59.74 64.58 56.78 63.53 54.19 61.84C51.77 60.31 49.72 58.26 48.19 55.84C46.5 53.24 45.44 50.27 45.12 47.17C45.09 46.9 45.12 46.62 45.21 46.36C45.3 46.09 45.44 45.85 45.63 45.65C45.82 45.44 46.04 45.28 46.3 45.17C46.55 45.05 46.83 45 47.11 45L50.11 45C50.59 44.99 51.06 45.16 51.43 45.48C51.8 45.79 52.04 46.23 52.11 46.71C52.23 47.67 52.47 48.62 52.81 49.53C52.94 49.88 52.97 50.27 52.89 50.65C52.81 51.02 52.62 51.36 52.36 51.63L51.09 52.91C52.51 55.41 54.58 57.48 57.09 58.91L58.36 57.63C58.63 57.37 58.97 57.18 59.34 57.1C59.72 57.02 60.11 57.05 60.47 57.19C61.37 57.52 62.31 57.76 63.28 57.88C63.76 57.95 64.2 58.2 64.52 58.57C64.84 58.95 65.01 59.42 65 59.91Z"
              fill="#BC3324" fill-opacity="1.000000" fill-rule="nonzero"/>
    </g>
</svg>
