<svg viewBox="0 0 110 110" fill="none" xmlns="http://www.w3.org/2000/svg" xmlns:xlink="http://www.w3.org/1999/xlink">
    <rect id="handshake" rx="0.000000" width="109.000000" height="109.000000" transform="translate(0.500000 0.500000)"
          fill="#1F1E1E" fill-opacity="1.000000"/>
    <g clip-path="url(#clip950_1278)">
        <path id="Vector"
              d="M59.48 53.41C59.09 53.79 58.44 53.79 58.05 53.41L53.58 48.95L46.53 55.99L45.87 55.35C45.3 54.79 44.99 54.03 44.99 53.24C44.99 52.44 45.3 51.68 45.87 51.12L50.11 46.87C50.67 46.31 51.43 46 52.23 46C53.02 46 53.78 46.31 54.35 46.87L59.48 52C59.87 52.38 59.87 53.01 59.48 53.41ZM60.18 51.29C60.96 52.06 60.96 53.33 60.18 54.12C58.91 55.38 57.57 54.33 57.35 54.12L53.59 50.35L48.02 55.92C47.92 56.02 47.85 56.13 47.8 56.25C47.75 56.37 47.72 56.5 47.72 56.63C47.72 56.76 47.75 56.89 47.8 57.01C47.85 57.13 47.92 57.24 48.02 57.33C48.41 57.72 49.04 57.72 49.44 57.33L54.06 52.71L54.77 53.42L50.15 58.04C50.05 58.14 49.98 58.25 49.93 58.37C49.88 58.49 49.85 58.62 49.85 58.75C49.85 58.88 49.88 59.01 49.93 59.13C49.98 59.25 50.05 59.36 50.15 59.46C50.54 59.84 51.17 59.84 51.57 59.46L56.19 54.83L56.9 55.54L52.28 60.16C52.18 60.26 52.11 60.37 52.06 60.49C52.01 60.61 51.98 60.74 51.98 60.87C51.98 61 52.01 61.13 52.06 61.25C52.11 61.37 52.18 61.48 52.28 61.58C52.37 61.67 52.48 61.74 52.6 61.79C52.72 61.84 52.85 61.87 52.98 61.87C53.11 61.87 53.24 61.84 53.36 61.79C53.48 61.74 53.59 61.67 53.69 61.58L58.31 56.96L59.02 57.66L54.4 62.29C54.3 62.38 54.23 62.49 54.18 62.61C54.13 62.73 54.1 62.86 54.1 62.99C54.1 63.12 54.13 63.25 54.18 63.37C54.23 63.49 54.3 63.6 54.4 63.7C54.58 63.88 54.84 63.99 55.1 63.99C55.23 63.99 55.36 63.96 55.48 63.91C55.6 63.86 55.71 63.79 55.81 63.7L64.12 55.35C64.69 54.79 65 54.03 65 53.24C65 52.44 64.69 51.68 64.12 51.12L59.89 46.87C59.33 46.32 58.59 46.01 57.81 46C57.03 45.99 56.27 46.28 55.71 46.81L60.18 51.29Z"
              fill="#BC3324" fill-opacity="1.000000" fill-rule="nonzero"/>
    </g>
</svg>
