<svg viewBox="0 0 110 110" fill="none" xmlns="http://www.w3.org/2000/svg" xmlns:xlink="http://www.w3.org/1999/xlink">

    <rect id="home" rx="0.000000" width="109.000000" height="109.000000" transform="translate(0.500000 0.500000)"
          fill="#1F1E1E" fill-opacity="1.000000"/>
    <g clip-path="url(#clip918_971)">
        <path id="Vector"
              d="M57 45.74L63 51C63.31 51.28 63.56 51.62 63.74 52.01C63.91 52.4 64 52.82 64 53.25L64 62C64 62.79 63.68 63.55 63.12 64.12C62.55 64.68 61.79 65 61 65L49 65C48.2 65 47.44 64.68 46.87 64.12C46.31 63.55 46 62.79 46 62L46 53.26C45.99 52.83 46.08 52.41 46.25 52.02C46.42 51.63 46.68 51.28 47 51L53 45.74C53.55 45.24 54.26 44.97 55 44.97C55.73 44.97 56.45 45.24 57 45.74ZM53 63L57 63L57 58C57 57.73 56.89 57.48 56.7 57.29C56.51 57.1 56.26 57 56 57L54 57C53.73 57 53.48 57.1 53.29 57.29C53.1 57.48 53 57.73 53 58L53 63Z"
              fill="#BC3324" fill-opacity="1.000000" fill-rule="evenodd"/>
    </g>
</svg>
