<svg viewBox="0 0 110 110" fill="none" xmlns="http://www.w3.org/2000/svg"
     xmlns:xlink="http://www.w3.org/1999/xlink">
    <rect id="information" rx="0.000000" width="109.000000" height="109.000000" transform="translate(0.500000 0.500000)"
          fill="#1F1E1E" fill-opacity="1.000000"/>
    <g clip-path="url(#clip488_12523)" transform="translate(43, 43)">
        <path id="Vector"
              d="M22 11C22 17.0752 17.0742 22 11 22C4.92578 22 0 17.0752 0 11C0 4.9248 4.92578 0 11 0C17.0742 0 22 4.9248 22 11ZM12 6.6001L12 11C12 11.5601 11.5605 12 11 12C10.4395 12 10 11.5601 10 11L10 6.6001C10 6.04004 10.4395 5.6001 11 5.6001C11.5605 5.6001 12 6.04004 12 6.6001ZM12.0117 15.3999C12.0117 14.8401 11.5703 14.3999 11.0117 14.3999L11 14.3999C10.4395 14.3999 10 14.8401 10 15.3999C10 15.96 10.4395 16.3999 11 16.3999L11.0117 16.3999C11.5703 16.3999 12.0117 15.96 12.0117 15.3999Z"
              clip-rule="evenodd" fill="#BC3324" fill-opacity="1.000000" fill-rule="evenodd"/>
    </g>
</svg>
