<svg viewBox="0 0 58 58" fill="none" xmlns="http://www.w3.org/2000/svg" xmlns:xlink="http://www.w3.org/1999/xlink">
	<circle id="Ellipse 16" cx="29.000000" cy="29.000000" r="29.000000" fill="#1F1E1E" fill-opacity="1.000000"/>
	<g clip-path="url(#clip932_2145)">
		<path id="Vector" d="M29 24C27.67 24 26.4 24.52 25.46 25.46C24.52 26.4 24 27.67 24 29C24 30.32 24.52 31.59 25.46 32.53C26.4 33.47 27.67 34 29 34C30.32 34 31.59 33.47 32.53 32.53C33.47 31.59 34 30.32 34 29C34 27.67 33.47 26.4 32.53 25.46C31.59 24.52 30.32 24 29 24ZM29 32.24C28.13 32.24 27.31 31.9 26.7 31.29C26.09 30.68 25.75 29.86 25.75 28.99C25.75 28.13 26.09 27.31 26.7 26.7C27.31 26.09 28.13 25.75 29 25.75C29.86 25.75 30.68 26.09 31.29 26.7C31.9 27.31 32.24 28.13 32.24 28.99C32.24 29.86 31.9 30.68 31.29 31.29C30.68 31.9 29.86 32.24 29 32.24Z" fill="#FFFFFF" fill-opacity="1.000000" fill-rule="nonzero"/>
		<path id="Vector" d="M35 24C35 24.55 34.55 25 34 25C33.44 25 33 24.55 33 24C33 23.44 33.44 23 34 23C34.55 23 35 23.44 35 24Z" fill="#FFFFFF" fill-opacity="1.000000" fill-rule="evenodd"/>
		<path id="Vector" d="M38.47 22.44C38.21 21.78 37.82 21.17 37.31 20.67C36.81 20.17 36.21 19.78 35.54 19.52C34.76 19.23 33.94 19.07 33.11 19.06C32.04 19.01 31.7 19 28.99 19C26.28 19 25.93 19 24.87 19.06C24.04 19.07 23.22 19.23 22.45 19.52C21.78 19.78 21.18 20.17 20.68 20.67C20.17 21.17 19.78 21.78 19.52 22.44C19.23 23.22 19.07 24.03 19.06 24.86C19.01 25.93 19 26.27 19 28.98C19 31.68 19 32.03 19.06 33.09C19.07 33.92 19.23 34.74 19.52 35.52C19.78 36.18 20.17 36.78 20.68 37.28C21.18 37.79 21.78 38.18 22.45 38.43C23.22 38.74 24.04 38.91 24.87 38.93C25.94 38.98 26.28 39 29 39C31.71 39 32.05 39 33.12 38.93C33.95 38.92 34.77 38.76 35.54 38.47C36.21 38.21 36.81 37.82 37.31 37.32C37.82 36.81 38.21 36.21 38.47 35.55C38.76 34.77 38.92 33.96 38.93 33.13C38.98 32.06 39 31.72 39 29.01C39 26.3 39 25.96 38.93 24.9C38.92 24.06 38.76 23.23 38.47 22.44ZM37.11 33.01C37.11 33.65 36.99 34.28 36.77 34.88C36.6 35.31 36.34 35.7 36.02 36.03C35.69 36.36 35.3 36.61 34.87 36.78C34.27 37 33.64 37.12 33.01 37.12C31.96 37.17 31.66 37.18 28.95 37.18C26.25 37.18 25.97 37.18 24.89 37.12C24.26 37.12 23.63 37 23.04 36.78C22.61 36.61 22.21 36.36 21.88 36.03C21.55 35.71 21.3 35.31 21.13 34.88C20.91 34.29 20.8 33.66 20.79 33.03C20.74 31.98 20.73 31.68 20.73 28.98C20.73 26.28 20.73 26 20.79 24.93C20.79 24.29 20.91 23.65 21.13 23.05C21.47 22.18 22.16 21.49 23.04 21.16C23.63 20.94 24.26 20.82 24.89 20.81C25.95 20.76 26.25 20.75 28.95 20.75C31.66 20.75 31.94 20.75 33.01 20.81C33.64 20.82 34.27 20.94 34.87 21.16C35.3 21.32 35.69 21.58 36.02 21.9C36.34 22.23 36.6 22.62 36.77 23.05C36.99 23.65 37.1 24.27 37.11 24.91C37.16 25.96 37.17 26.26 37.17 28.96C37.17 31.66 37.17 31.95 37.12 33.01L37.11 33.01L37.11 33.01Z" fill="#FFFFFF" fill-opacity="1.000000" fill-rule="nonzero"/>
	</g>
</svg>
