<svg width="1518.276855" height="257.000000" viewBox="0 0 1518.28 257" fill="none" xmlns="http://www.w3.org/2000/svg" xmlns:xlink="http://www.w3.org/1999/xlink">

	<path id="LENNI" d="M383.83 250.73L383.83 0L0 0L0 257L511.9 257L511.9 250.73L383.83 250.73ZM534.12 257L692.87 257L692.87 250.73L564.16 250.73L564.16 126.47L664.41 126.47L664.41 120.2L564.16 120.2L564.16 6.26L692.71 6.26L692.71 0L534.12 0L534.12 257ZM744.82 6.63L744.82 257L714.78 257L714.78 0L744.82 0C757.78 0 789.72 2.94 817.86 28.02C840.63 47.93 855.49 75.58 863.08 113.56L863.08 0L893.13 0L893.13 257L863.08 257L863.08 160.76C856.76 17.69 772.01 6.63 744.82 6.63ZM954.81 257L954.81 6.63C982 6.63 1066.75 17.69 1073.07 160.76L1073.07 257L1103.12 257L1103.12 0L1073.07 0L1073.07 113.56C1065.49 75.58 1050.63 47.93 1027.86 28.02C999.71 2.94 967.77 0 954.81 0L924.77 0L924.77 257L954.81 257ZM1134.76 0L1518.28 0L1518.28 257L1134.76 257L1134.76 0Z" fill="#1F1E1E" fill-opacity="1.000000" fill-rule="evenodd"/>
</svg>
