<svg viewBox="0 0 110 110" fill="none" xmlns="http://www.w3.org/2000/svg" xmlns:xlink="http://www.w3.org/1999/xlink">

    <rect id="star" rx="0.000000" width="109.000000" height="109.000000" transform="translate(0.500000 0.500000)"
          fill="#1F1E1E" fill-opacity="1.000000"/>
    <g clip-path="url(#clip918_973)">
        <path id="Vector"
              d="M64.99 52.23C64.93 52.05 64.81 51.89 64.66 51.77C64.51 51.65 64.32 51.58 64.13 51.56L58.44 50.73L55.89 45.56C55.81 45.39 55.68 45.25 55.52 45.15C55.36 45.05 55.18 45 54.99 45C54.8 45 54.62 45.05 54.46 45.15C54.3 45.25 54.17 45.39 54.09 45.56L51.54 50.72L45.85 51.56C45.66 51.59 45.49 51.66 45.35 51.78C45.2 51.9 45.1 52.06 45.04 52.24C44.99 52.41 44.98 52.6 45.02 52.77C45.07 52.95 45.16 53.11 45.29 53.24L49.42 57.24L48.42 62.92C48.38 63.11 48.4 63.3 48.47 63.48C48.54 63.65 48.66 63.81 48.82 63.92C48.97 64.03 49.15 64.09 49.33 64.1C49.52 64.12 49.7 64.08 49.87 63.99L54.99 61.32L60.09 64C60.23 64.08 60.39 64.12 60.55 64.12C60.76 64.12 60.97 64.05 61.14 63.93C61.29 63.82 61.41 63.66 61.48 63.49C61.56 63.31 61.57 63.12 61.54 62.93L60.54 57.25L64.67 53.25C64.81 53.13 64.92 52.97 64.98 52.79C65.03 52.6 65.04 52.41 64.99 52.23Z"
              fill="#BC3324" fill-opacity="1.000000" fill-rule="evenodd"/>
    </g>
</svg>
