<svg width="20.001953" height="17.000000" viewBox="0 0 20.002 17" fill="none" xmlns="http://www.w3.org/2000/svg" xmlns:xlink="http://www.w3.org/1999/xlink">
	<desc>
			Created with Pixso.
	</desc>
	<defs/>
	<path id="Vector" d="M11.29 8.71C11.83 8.25 12.26 7.68 12.55 7.04C12.84 6.4 13 5.7 13 5C13 3.67 12.47 2.4 11.53 1.46C10.59 0.52 9.32 0 8 0C6.67 0 5.4 0.52 4.46 1.46C3.52 2.4 3 3.67 3 5C3 5.7 3.15 6.4 3.44 7.04C3.73 7.68 4.16 8.25 4.7 8.71C3.3 9.35 2.11 10.37 1.27 11.66C0.44 12.95 0 14.46 0 16C0 16.26 0.1 16.51 0.29 16.7C0.48 16.89 0.73 17 1 17C1.26 17 1.51 16.89 1.7 16.7C1.89 16.51 2 16.26 2 16C2 14.4 2.63 12.88 3.75 11.75C4.88 10.63 6.4 10 8 10C9.59 10 11.11 10.63 12.24 11.75C13.36 12.88 14 14.4 14 16C14 16.26 14.1 16.51 14.29 16.7C14.48 16.89 14.73 17 15 17C15.26 17 15.51 16.89 15.7 16.7C15.89 16.51 16 16.26 16 16C15.99 14.46 15.55 12.95 14.72 11.66C13.88 10.37 12.69 9.35 11.29 8.71ZM8 8C7.4 8 6.82 7.82 6.33 7.49C5.83 7.16 5.45 6.69 5.22 6.14C5 5.59 4.94 4.99 5.05 4.41C5.17 3.83 5.45 3.29 5.87 2.87C6.29 2.45 6.83 2.17 7.41 2.05C7.99 1.94 8.6 2 9.14 2.22C9.69 2.45 10.16 2.83 10.49 3.33C10.82 3.82 11 4.4 11 5C11 5.79 10.68 6.55 10.12 7.12C9.55 7.68 8.79 8 8 8ZM19.7 5.62C19.61 5.53 19.5 5.46 19.38 5.41C19.26 5.36 19.13 5.33 19 5.33C18.86 5.33 18.73 5.36 18.61 5.41C18.49 5.46 18.38 5.53 18.29 5.62L16.29 7.62L15.66 7C15.57 6.9 15.46 6.83 15.34 6.78C15.22 6.73 15.09 6.7 14.96 6.7C14.82 6.7 14.69 6.73 14.57 6.78C14.45 6.83 14.34 6.9 14.25 7C14.06 7.18 13.95 7.44 13.95 7.7C13.95 7.96 14.06 8.22 14.25 8.4L15.58 9.75C15.77 9.93 16.03 10.04 16.29 10.04C16.55 10.04 16.81 9.93 17 9.75L19.66 7.08C19.77 6.98 19.85 6.87 19.9 6.75C19.96 6.63 19.99 6.49 20 6.36C20 6.22 19.98 6.09 19.93 5.96C19.88 5.84 19.8 5.72 19.7 5.62Z" fill="#1F1E1E" fill-opacity="1.000000" fill-rule="nonzero"/>
</svg>
